<svg xmlns="http://www.w3.org/2000/svg" viewBox="0 0 1024 1024" xml:space="preserve"><path fill="#0C0C0D" d="M604 1025H1V1h1024v1024zM181.891 762.075s-.12-.026.004.584c.334.499.669.998 1.024 1.424 0 0-.075.01.04.66.662 1.115 1.323 2.23 2.032 3.29 0 0-.073.013.048.634.594.85 1.188 1.7 1.822 2.425 0 0-.128-.032.01.571.354.482.709.964 1.1 1.38 0 0-.074.016.08.624.618.823 1.235 1.646 1.894 2.395 0 0-.082.023.089.623.632.807 1.264 1.613 1.94 2.352 0 0-.077.023.125.66 1.514 1.88 3.028 3.761 4.607 5.525 0 0-.125-.048.064.528.405.43.809.861 1.342 1.75.174.29.426.472.964 1.051.287.219.573.437.98 1.067.153.27.383.427.941.996.32.205.64.411.896.487 0 0-.127.069.11.621.597.517 1.194 1.033 1.843 1.42 0 0-.133-.042.09.509.326.21.652.421.923.512 0 0-.115.064.182.64 1.289 1.147 2.578 2.294 4.137 3.981.939.74 1.877 1.479 3.142 2.717.511.299 1.022.598 1.585.668 0 0-.23-.043-.02.524.34.203.683.406 1.192 1.002.2.227.453.347 1.025.806.3.158.601.316.9.507 0 0 .027-.018.398.44.502.299 1.005.598 1.7 1.283.219.211.48.315 1.158.815.898.513 1.796 1.027 2.71 1.468 0 0-.06.04.3.535.557.248 1.112.496 1.629.608 0 0-.133.049.233.565.93.47 1.861.942 2.802 1.339 0 0-.07.027.299.525.573.227 1.147.454 1.684.548 0 0-.13.044.29.59 3.242 1.506 6.484 3.012 10.078 4.975.554.144 1.107.288 2.155.94 9.185 2.697 18.37 5.394 28.069 8.267.179-.023.359-.046 1.336.103a7683 7683 0 0 1 34.093 2.94c101.212.01 202.423.033 303.634.023 36.787-.004 73.574-.087 111.256-.02 3.979-.3 7.958-.595 11.937-.9 22.558-1.724 43.885-7.65 62.802-20.264 39.461-26.312 54.508-65.264 56.367-111.77.024-98.986.067-197.973.061-296.96-.002-34.66-.127-69.318-.07-104.862-1.996-13.102-2.842-26.505-6.188-39.253-14.037-53.487-58.44-81.332-99.549-88.002-4.399-.694-8.798-1.389-13.53-2.763-3.89-.047-7.78-.095-12.59.032-6.472-.025-12.942-.054-19.413-.074-23.555-.073-47.111-.143-71.102-.574-.846.12-1.692.24-3.463.533-12.7-.054-25.399-.11-38.447-.472l-2.555.481c-31.032-.057-62.064-.114-93.444-.478l-2.557.48c-15.031-.057-30.062-.116-45.317-.355-.284-.125-.537-.065-1.684.354-24.931.013-49.862.052-74.793.03-22.765-.02-45.53-.105-68.653-.477-.55.125-1.101.25-2.39.596-1.021.028-2.043.056-3.523-.379l-3.52-.386c.247.39.495.782-.116 1.398-7.349 1.079-14.697 2.157-22.608 3.139-.522.183-1.043.366-2.207.67-.414.133-.828.265-2.023.338-5.083 1.66-10.167 3.32-15.99 5.018-3.467 1.616-6.934 3.233-10.328 4.886 0 0-.018-.08-.593.01-.468.305-.937.61-1.98 1.002-.471.304-.941.608-2.076 1.044-1.494.95-2.988 1.9-4.364 2.887 0 0 .03-.12-.571.013-.487.347-.973.693-1.393 1.077 0 0-.016-.074-.62.084-.82.62-1.64 1.24-2.39 1.902 0 0-.018-.078-.617.1-.814.634-1.627 1.268-2.882 1.99-.3.128-.484.353-1.15.892-.803.673-1.607 1.346-2.851 2.126-.296.143-.474.376-1.092.913-.596.52-1.19 1.04-1.71 1.63 0 0 .051-.09-.463.111-.216.288-.433.576-.714.73 0 0-.14.051-.62.389-.677.697-1.355 1.395-2.455 2.21-.281.15-.444.381-1.076 1.002-1.202 1.28-2.405 2.561-4.15 4.131-1.069 1.237-2.137 2.474-3.726 3.998-.32.5-.639.999-.793 1.73 0 0 .232-.166-.466-.09-.275.37-.55.74-1.292 1.466-.958 1.255-1.916 2.51-3.361 4.145-.677 1.021-1.353 2.042-2.076 3.12 0 0 .034.066-.427.498-.754 1.263-1.509 2.526-2.178 3.82 0 0-.029-.086-.553.268-.473.93-.946 1.86-1.344 2.806 0 0-.032-.07-.526.3-.223.573-.446 1.144-.543 1.68 0 0-.042-.124-.59.295-2.508 5.568-5.016 11.136-7.422 16.694 0 0-.018-.101-.524.373-.289.879-.577 1.757-1.206 3.065-.074.54-.147 1.079-.664 2.198-6.269 18.485-8.192 37.66-8.248 56.986q-.301 103.17-.095 206.339c.128 63.607.304 127.216 1.023 190.817.188 16.657 4.252 32.881 10.961 48.856.296.485.591.97.929 2.122.614 1.163 1.228 2.326 1.873 3.396 0 0-.094-.026-.015.597.318.511.637 1.023.988 1.415"/><path fill="#076ADE" d="M241.944 819.132c-.554-.145-1.107-.289-1.963-1.002-3.6-2.03-6.899-3.491-10.197-4.952 0 0 .13-.044-.047-.225a16 16 0 0 0-1.875-.865s.07-.027-.023-.33c-1.087-.718-2.081-1.135-3.075-1.552 0 0 .133-.049-.033-.232a16 16 0 0 0-1.824-.92s.062-.04-.04-.333c-1.061-.755-2.021-1.217-2.982-1.679-.304.004-.566-.1-1.044-.758-.776-.729-1.294-1.012-1.812-1.294 0 0-.027.018-.197-.182a9 9 0 0 0-1-.755c-.302-.011-.554-.13-.999-.794-.548-.668-.853-.9-1.158-1.133 0 0 .23.043.053-.112a30 30 0 0 0-1.734-1.012c-.939-.74-1.877-1.479-2.938-2.894.02-3.757-1.794-4.28-4.312-3.88 0 0 .115-.065-.013-.245a11 11 0 0 0-1.018-.883s.133.042.071-.224c-.714-.747-1.366-1.226-2.018-1.706 0 0 .127-.069-.008-.232-.427-.392-.72-.62-1.012-.85-.307-.043-.537-.2-.892-.9-.463-.669-.724-.906-.986-1.143-.33-.073-.582-.255-.895-1.07a7.9 7.9 0 0 0-1.392-1.801s.125.048.157-.268c-1.592-2.16-3.216-4.002-4.84-5.846 0 0 .077-.023.047-.339-.714-1.09-1.398-1.863-2.082-2.636 0 0 .082-.023.061-.337-.69-1.106-1.358-1.897-2.027-2.689 0 0 .074-.017.003-.288a15 15 0 0 0-1.167-1.71s.128.031.13-.262c-.648-1.114-1.296-1.934-1.945-2.753 0 0 .073-.012.055-.359-.721-1.428-1.425-2.51-2.13-3.593 0 0 .076-.011.025-.284-.4-.77-.749-1.265-1.098-1.761 0 0 .121.026.079-.227a16 16 0 0 0-1.025-1.785s.094.026.1-.302c-.637-1.463-1.279-2.6-1.92-3.735-.297-.485-.592-.97-.7-2.019-1.886-9.029-4.29-17.43-5.94-25.978-1.699-8.798-3.193-17.703-3.792-26.627-.552-8.21.385-16.508.338-24.765-.055-9.725-.684-19.449-.662-29.172.027-11.603.74-23.206.686-34.807-.072-15.732-.772-31.461-.846-47.193-.044-9.586.703-19.173.852-28.763.06-3.962-.776-7.936-.746-11.902.06-8.038.655-16.076.626-24.112-.053-14.604-.573-29.206-.572-43.81 0-11.739.665-23.477.713-35.217.113-28.141-.412-56.293.199-84.422.385-17.728-2.99-35.496.775-53.196 1.634-7.682 2.644-15.5 3.846-23.271.501-3.24.765-6.518 1.137-9.779.074-.54.147-1.078.69-2.04.727-1.32.985-2.219 1.243-3.117 0 0 .018.101.289-.046 2.746-5.754 5.223-11.36 7.699-16.966 0 0 .042.125.222-.054.405-.744.631-1.308.857-1.873 0 0 .032.07.332-.026.722-1.085 1.145-2.074 1.568-3.063 0 0 .029.086.34.02.983-1.438 1.655-2.812 2.328-4.186 0 0-.034-.065.356-.063.985-1.165 1.58-2.334 2.173-3.502.958-1.256 1.916-2.51 3.394-4.099.837-.625 1.153-.917 1.47-1.21 0 0-.232.167-.02-.062.508-.749.805-1.268 1.102-1.788 1.068-1.237 2.136-2.474 3.87-3.85 1.8-1.526 2.936-2.912 4.071-4.298.046-.315.209-.547 1.068-.768 1.172-.873 1.764-1.674 2.357-2.476 0 0 .14-.05.439-.07.509-.318.72-.615.93-.912 0 0-.052.09.255.085.858-.617 1.409-1.228 1.96-1.84.06-.322.24-.555 1.114-.77 1.343-.805 2.107-1.539 2.871-2.273.067-.32.25-.545 1.12-.732 1.351-.742 2.132-1.426 2.912-2.11 0 0 .018.079.334.055 1.103-.694 1.89-1.365 2.678-2.036 0 0 .016.074.287.004.755-.426 1.24-.783 1.724-1.14 0 0-.03.12.29.122 1.783-1.006 3.245-2.014 4.708-3.022.47-.303.94-.607 1.894-.783 1.014-.321 1.543-.77 2.072-1.22 0 0 .018.08.392.085 3.813-1.64 7.253-3.285 10.693-4.93 5.084-1.66 10.168-3.32 15.838-4.8 1.084-.094 1.58-.366 2.078-.638.522-.183 1.043-.366 2.162-.288 2.391.236 4.196.33 5.977.166 8.418-.779 16.83-2.338 25.244-2.346 142.187-.146 284.375-.106 426.562-.066 3.138 0 6.271.585 9.415.733 4.226.2 8.46.24 12.691.349 40.328 6.488 84.731 34.333 98.768 87.82 3.346 12.748 4.192 26.151 5.93 40.05-.391 2.448-.643 4.098-.643 5.749-.02 130.12-.024 260.239.012 390.358 0 1.948.514 3.895.788 5.843-1.749 45.581-16.796 84.533-56.257 110.845-18.917 12.614-40.244 18.54-62.802 20.265-3.979.304-7.958.6-12.735.636-2.279-.405-3.76-.67-5.243-.67-136.591-.009-273.182.003-410.158-.153-7.745-.742-15.101-1.395-22.47-1.86-3.693-.233-7.407-.123-11.112-.169-.18.023-.359.046-.94-.33-1.067-.846-1.675-1.485-2.41-1.712a1808 1808 0 0 0-23.977-7.227c-.494-.145-1.179.36-1.774.564m110.136-78.187s.05-.164.16.422c.457.29.913.58 1.632.956 0 0 .02.276-.109.446v.175s.27-.094.9.19c5.825 5.763 13.094 6.424 20.707 5.85 7.22-.545 12.403-4.428 16.843-11.488v10.477c4.774 0 9.205 0 14.157-.647.205-.958.585-1.917.587-2.876.04-19.567.055-39.134-.002-58.701-.004-1.248-.638-2.493-1.899-3.89-4.441.037-8.883.073-13.962.52-.362 1.216-1.012 2.424-1.04 3.647-.338 14.411-.583 28.825-.863 43.108 0 0 .13 0-.506.251-.525.931-1.05 1.862-1.606 2.665 0 0 .129-.025-.314.316-.246.279-.493.557-.715.705 0 0 .13.03-.488.16-.36.472-.72.944-1.146 1.408 0 0 .006-.066-.807-.24-3.907.647-7.814 1.295-12.439 1.82-2.322-2.417-4.644-4.835-6.578-7.904-.209-14.523-.4-29.046-.67-43.568-.016-.91-.654-1.807-1.92-2.8-4.632.033-9.264.065-14.419.735-.176.629-.505 1.258-.506 1.887-.035 14.86-.118 29.72.06 44.577.024 1.947 1.426 3.876 2.009 5.774 0 0 .048-.178-.003.588.81 1.428 1.62 2.855 2.114 4.34 0 0-.043-.32.215.224.257.306.515.612.608.873m176.524-6.521s-.053.08-.127-.573c-.636-.507-1.272-1.014-1.74-1.755 0 0-.13.257-.07-.571-.556-6.104-1.402-12.199-1.597-18.314-.276-8.654.026-17.324-.15-25.983-.036-1.783-1.086-3.545-1.809-5.26 0 0-.054-.14-.146-.603 0 0-.094-.46-.75-.896-4.374.152-8.747.305-13.149 1.022-.006.189-.013.377-.068.542 0 0 .044-.03-.449.639-.121.307-.349.614-.35.922-.067 15.914-.182 31.829-.056 47.742.012 1.523 1.541 3.034 2.77 5.068 2.815 6.834 8.114 11.01 15.13 12.232 10.641 1.854 20.3-.049 27.165-9.855v9.191c4.746 0 9.192 0 14.147-.655.207-.958.594-1.916.596-2.874.04-19.563.054-39.126-.006-58.69-.003-1.245-.647-2.488-1.911-3.847-4.623.055-9.245.111-14.415.781-.412 15.204-.825 30.409-1.06 45.557 0 0 .058.178-.49.263-.38.827-.76 1.654-1.346 3.137-5.786 5.876-11.858 7.043-19.193 3.194-.34-.148-.678-.296-.926-.414m-90.627-129.87c.286-.212.572-.425 1.227-1.25 4.677-3.914 9.23-3.57 14.138-.14 3.495 2.443 7.502 4.142 11.175 6.346 3.697 2.218 6.806 2.012 9.945-1.692.185-7.94.442-15.88.536-23.821.094-7.993.024-7.998 7.79-7.998 49.322-.002 98.643.02 147.965-.078 2.078-.004 4.155-1.132 6.953-1.922 7.255-2.51 9.382-5.314 9.384-12.644.016-94.86-.032-189.72.135-284.579.012-6.716-2.382-11.051-8.381-14.266-.78-.176-1.56-.505-2.34-.505-76.694-.023-153.387-.026-230.08.028-1.063.001-2.126.74-3.787 1.627-5.868 2.49-12.162 4.295-17.511 7.62-9.375 5.828-13.502 15.46-16.301 25.407-.135-.082-.285-.245-.4-.223-.131.024-.322.21-.328.334a56 56 0 0 0-.095 2.995q-.009 115.983-.003 231.966c0 1.164.082 2.327.126 3.491.262-.033.54-.025.78-.117.118-.045.164-.277.71.204 3.588 18.676 14.622 30.83 32.748 37.643 3.442.988 6.868 2.709 10.33 2.783 4.665.1 5.507 2.093 5.373 6.12-.237 7.134-.21 14.287.034 21.421.065 1.913 1.315 3.786 1.93 5.664 0 0 .014-.092.196.53.652.467 1.303.934 1.798 1.452 0 0-.048-.157.53.343 4.156 1.576 7.217.23 9.377-3.395 0 0-.116-.013.646.004 1.646-1.168 3.292-2.335 4.997-3.457 0 0 .012-.074.403.11m142.491 77.604c-.152.457-.437.914-.437 1.371-.029 20.082-.055 40.164.011 60.246.005 1.398.717 2.795 2.016 4.195h13.146c0-6.006-.082-11.467.02-16.924a658 658 0 0 1 .785-22.377v37.536c.973-11.45 1.017-22.896.936-34.341-.016-2.276-.512-4.548-.851-7.536 3.839-10.536 12.096-12.43 21.781-10.904V680.29c-9.877-.665-18.042 1.525-23.894 10.274v-8.539c-4.691 0-8.83 0-13.513.134m-261.474-9.176v73.042l.993-.005v-4.94c0-20.956.07-41.913-.06-62.869-.025-3.821 1.11-5.432 5.113-5.26 5.81.252 11.641.118 17.46.012 1.113-.02 2.215-.672 3.436-1.942.01-3.97.019-7.94-.625-12.418-.96-.201-1.918-.576-2.878-.578-20.871-.038-41.742-.05-62.613-.004-1.27.003-2.537.537-4.554 1.284-.065 4.165-.13 8.33.426 13.04 6.787.217 13.58.709 20.36.554 4.487-.103 6.095 1.196 6.044 5.907-.228 20.982-.13 41.968-.049 62.952.008 2.071.702 4.14 1.997 6.217h14.025c0-24.053-.018-47.48.039-70.907.004-1.672.554-3.343.886-4.085m102.288 50.027c8.397 20.597 25.452 30.02 46.95 25.942 14.83-2.813 27.774-16.486 28.88-30.805-2.664 0-5.344.284-7.94-.062-4.563-.608-6.878.943-8.846 5.393-3.906 8.831-11.44 13.348-21.092 13.274-9.316-.071-16.988-4.06-21.02-12.698-6.312-13.522-6.315-27.422.211-40.873 3.25-6.7 8.966-11.068 16.615-12.213 13.534-2.025 22.053 3.43 27.997 18.181l14.066-1.294c-.238-1.619-.268-2.624-.542-3.559-4.166-14.217-13.572-23.183-27.989-26.003-15.356-3.005-29.41.305-39.617 12.896-12.391 15.286-12.696 32.88-7.673 51.821m326.997 5.586c.559-6.742 2.041-13.562 1.478-20.209-1.057-12.454-7.05-22.063-19.54-26.33-12.732-4.348-26.134-1.16-34.093 8.488-7.705 9.34-8.807 20.352-7.266 32.013 1.88 14.232 11.798 24.916 25.078 26.391 16.59 1.843 28.837-5.19 34.343-20.353m-93.926-19.469c-2.9-.672-5.802-1.335-8.699-2.02-3.573-.843-6.186-2.94-6.4-6.672-.224-3.92 2.343-6.412 5.732-7.985 7.094-3.294 14.375-.62 19.262 6.91h12.785c-.312-6.023-2.325-10.305-6.964-13.301-10.483-6.771-21.67-7.944-33.23-3.07-5.297 2.232-8.957 6.336-10.717 11.84-3.753 11.736 1.574 20.293 14.824 23.954 6.366 1.76 12.902 3.01 19.107 5.21 4.77 1.69 5.408 6.953 1.853 10.456-6.138 6.048-19.037 4.606-23.858-2.612-.57-.855-1.52-2.005-2.346-2.048-4.062-.212-8.142-.097-12.216-.097l-1.154 1.442c2.487 3.726 4.407 8.044 7.565 11.07 10.18 9.753 32.059 9.385 42.343-.252 10.632-9.964 6.996-26.004-6.919-30.238-3.318-1.01-6.763-1.6-10.968-2.587M648.057 449.5v113.816l.695-.002V273.685h-.695z"/><path fill="#056CE1" d="M174.697 251.257c-.15 2.97-.415 6.248-.916 9.489-1.202 7.77-2.212 15.589-3.846 23.271-3.766 17.7-.39 35.468-.775 53.196-.61 28.129-.086 56.28-.2 84.422-.047 11.74-.712 23.478-.712 35.217 0 14.604.519 29.206.572 43.81.03 8.036-.566 16.074-.626 24.112-.03 3.966.807 7.94.746 11.902-.149 9.59-.896 19.177-.852 28.763.074 15.732.774 31.461.846 47.193.053 11.601-.659 23.204-.686 34.807-.022 9.723.607 19.447.662 29.172.047 8.257-.89 16.556-.338 24.765.6 8.924 2.093 17.829 3.792 26.627 1.65 8.547 4.054 16.949 5.938 25.692-6.895-15.125-10.959-31.349-11.147-48.006-.719-63.601-.895-127.21-1.023-190.817q-.206-103.17.095-206.339c.056-19.326 1.98-38.5 8.47-57.276"/><path fill="#0678F7" d="M746.577 169.032c-3.84-.018-8.075-.058-12.301-.258-3.144-.148-6.277-.732-9.415-.733-142.187-.04-284.375-.08-426.562.066-8.415.008-16.826 1.567-25.244 2.346-1.781.164-3.586.07-5.696-.117 7.033-1.292 14.381-2.37 22.486-3.506a69 69 0 0 0 3.34-.492c1.02-.028 2.042-.056 3.765-.12 1.151-.104 1.599-.175 2.046-.245 22.765.057 45.53.143 68.295.163 24.93.021 49.862-.018 75.501-.059.872-.067 1.036-.106 1.2-.145 15.03.058 30.062.117 45.883.159a33 33 0 0 0 2.116-.157c31.031.056 62.063.113 93.884.154 1.232-.063 1.673-.11 2.115-.157 12.699.055 25.398.11 38.929.15a104 104 0 0 0 3.067-.159q35.334.106 70.667.214c6.47.02 12.941.049 20.277.105 4.597.227 8.328.422 12.06.617 4.398.694 8.797 1.389 13.587 2.174"/><path fill="#0586FF" d="M305.011 830.032c136.592-.01 273.183-.022 409.774-.014 1.482 0 2.964.266 4.796.613-36.437.254-73.224.337-110.01.34-101.212.01-202.423-.012-304.098-.284-.464-.262-.462-.655-.462-.655m546.866-131.551c-.33-1.486-.843-3.433-.843-5.381-.036-130.12-.032-260.239-.012-390.358 0-1.65.252-3.3.58-5.306.264 34.304.389 68.963.391 103.622.006 98.987-.037 197.974-.116 297.423"/><path fill="#0678F7" d="M304.627 829.866c.384.166.382.56.382.756-11.056-.74-22.11-1.677-33.565-2.699 3.306-.04 7.02-.15 10.713.083 7.369.465 14.725 1.118 22.47 1.86"/><path fill="#056CE1" d="M242.191 819.385c.348-.456 1.033-.962 1.527-.817 8.01 2.35 16 4.766 23.976 7.227.736.227 1.344.866 2.155 1.624-9.041-2.386-18.226-5.083-27.658-8.034m-57.626-590.378a283 283 0 0 1-7.477 16.762c2.187-5.416 4.695-10.984 7.477-16.762"/><path fill="#0C0200" d="M732.823 166.518c-3.565.145-7.296-.05-11.432-.364 3.486-.071 7.376-.023 11.432.364"/><path fill="#056CE1" d="M229.995 813.45a92 92 0 0 1 9.81 4.45c-3.116-1.164-6.358-2.67-9.81-4.45m16.635-637.418c-3.07 1.626-6.51 3.27-10.36 4.892 3.057-1.64 6.524-3.256 10.36-4.892m-54.632 603.347a42.4 42.4 0 0 1 4.708 5.585c-1.579-1.506-3.093-3.386-4.708-5.585m12.894 15.136c2.37-.686 4.185-.164 4.029 3.324-1.302-.742-2.591-1.89-4.029-3.324m26.725-611.587c-1.13.941-2.593 1.95-4.435 2.937 1.114-.971 2.608-1.921 4.435-2.937m-25.007 17.969a22.5 22.5 0 0 1-3.507 4c.808-1.286 2.01-2.566 3.506-4"/><path fill="#0C0200" d="M292.955 166.106c-.632.377-1.492.522-2.68.611-.575-.446-.823-.837-1.07-1.228 1.173.129 2.347.257 3.75.617"/><path fill="#056CE1" d="M190.255 219.832a17.4 17.4 0 0 1-2.14 3.956c.401-1.214 1.156-2.477 2.14-3.956m2.517-3.592a10.7 10.7 0 0 1-1.907 3.285c.31-1.053.986-2.074 1.907-3.285m-9.87 548.178c.646.758 1.35 1.84 2.047 3.297-.667-.741-1.328-1.857-2.047-3.297m-3.878-8.084c.621.802 1.263 1.938 1.884 3.447-.635-.788-1.249-1.951-1.884-3.447m31.063-558.665c-.353.633-.945 1.434-1.905 2.248.31-.684.988-1.382 1.905-2.248m14.551-10.693c-.485.592-1.273 1.263-2.41 1.937.468-.617 1.288-1.238 2.41-1.937m-3.009 1.992c-.481.594-1.262 1.278-2.392 1.976.465-.62 1.278-1.253 2.392-1.976m3.318 621.496c.81.159 1.805.576 2.887 1.332-.843-.132-1.774-.603-2.887-1.332m-7.35-618.634c-.465.624-1.23 1.358-2.352 2.11.445-.655 1.249-1.328 2.352-2.11m-32.619 576.526c.589.51 1.237 1.33 1.864 2.506-.615-.494-1.21-1.345-1.864-2.506m2.578-544.396c-.16.811-.584 1.8-1.344 2.878.136-.842.609-1.772 1.344-2.879m.418 549.404c.592.488 1.26 1.28 1.93 2.422-.618-.472-1.235-1.295-1.93-2.422m32.098 33.931c.774.21 1.734.672 2.787 1.463-.805-.184-1.703-.698-2.787-1.463m-30.123-30.909c.598.473 1.282 1.247 1.974 2.37-.625-.457-1.257-1.263-1.974-2.37m11.935 15.061c.534.204 1.186.683 1.875 1.494-.562-.185-1.16-.701-1.875-1.494m33.744-610.543c-.242.404-.771.854-1.497 1.13.272-.475.74-.78 1.497-1.13m-21.996 13.967c-.272.505-.823 1.116-1.719 1.698.25-.55.845-1.07 1.72-1.698"/><path fill="#0C0200" d="M629.769 165.742c-.528.228-1.274.277-2.388.253.478-.193 1.324-.313 2.388-.253"/><path fill="#056CE1" d="M176.598 246.047c-.005.661-.263 1.56-.82 2.666-.01-.672.278-1.55.82-2.666"/><path fill="#0C0200" d="M587.815 165.777c-.267.2-.708.248-1.477.224.216-.173.76-.275 1.477-.224"/><path fill="#056CE1" d="M196.676 785.462c.323.136.74.56 1.233 1.283-.33-.134-.734-.565-1.233-1.283m-11.005-558.405c.021.379-.205.943-.674 1.704-.02-.375.204-.946.674-1.704m26.486 574.195c.356.036.875.322 1.546.877-.36-.03-.872-.33-1.546-.877m5.058 3.966c.332.054.85.337 1.53.874-.34-.046-.843-.345-1.53-.874m5.873 4.084q.557-.003 1.662.74-.556.004-1.662-.74m4.958 3.035c.382-.02.948.208 1.71.683-.378.02-.952-.207-1.71-.683m-1.396-626.509c-.184.29-.668.647-1.456 1.055.182-.296.668-.642 1.456-1.055"/><path fill="#0678F7" d="M264.595 170.635c-.176.212-.673.484-1.367.607.218-.28.632-.413 1.367-.607"/><path fill="#056CE1" d="M186.802 771.362c.296.178.662.658 1.08 1.442-.302-.177-.657-.659-1.08-1.442"/><path fill="#0C0200" d="M491.817 165.78c-.268.2-.71.248-1.48.223.217-.173.76-.275 1.48-.223"/><path fill="#056CE1" d="M198.7 209.036c-.036.376-.333.895-.924 1.528.025-.386.345-.885.924-1.528"/><path fill="#0C0200" d="M298.817 165.816c-.268.227-.716.298-1.497.292.217-.2.767-.325 1.497-.292"/><path fill="#056CE1" d="M181.833 762.354c.286.19.635.687 1.024 1.492-.293-.19-.628-.688-1.024-1.492m-.97-2.006c.289.2.616.71.97 1.534-.293-.2-.612-.71-.97-1.534"/><path fill="#0C0200" d="M443.88 165.842c-.052.13-.216.168-.626.148-.023-.304.23-.364.625-.148"/><path fill="#056CE1" d="M215.967 804.277c.142-.039.42.146.866.515-.13.025-.43-.133-.866-.515m-2.187-1.867c.2-.052.505.18.97.653-.182.036-.524-.167-.97-.654m-2.342-605.79c.047.196-.163.493-.64.877-.05-.2.167-.489.64-.877m-7.613 596.757c.185-.042.481.192.933.666-.17.03-.496-.18-.933-.666M197.53 210.78c.032.255-.284.547-.887.994-.012-.215.263-.585.887-.993m3.342 579.57c.167-.033.46.195.918.652-.154.022-.473-.184-.918-.652m-1.9-2.053c.158-.016.419.221.822.683-.145.007-.431-.211-.822-.683"/><path fill="#FFF" d="M638.912 263.069c5.93 2.656 8.325 6.991 8.313 13.707-.167 94.86-.119 189.72-.135 284.58-.002 7.33-2.13 10.132-10.14 12.67-1.82.103-2.885.177-4.412.162-51.762-.094-103.062-.107-154.362-.068-1.333 0-2.666.56-4.086 1.323-.12 11.113-.152 21.764-.185 32.415-2.582 3.664-5.691 3.87-9.388 1.652-3.673-2.204-7.68-3.903-11.175-6.346-4.908-3.43-9.46-3.774-14.55.47-.726.367-.99.504-1.206.737 0 0-.012.074-.336.219a302 302 0 0 0-5.435 3.295s.116.013-.245.034c-3.44.972-6.517 1.923-9.594 2.874 0 0 .048.157-.013-.133-.68-.788-1.3-1.286-1.919-1.784 0 0-.015.092-.042-.368-.026-11.645-.026-22.83-.026-33.644l-17.919-2.487c-17.82-6.21-28.854-18.364-32.663-37.803-.274-1.76-.374-2.756-.374-3.754.008-77.91.024-155.82.039-233.729 2.565-10.351 6.692-19.983 16.067-25.81 5.349-3.326 11.643-5.131 18.265-7.856 2.084-.294 3.415-.403 4.746-.403 76.925.01 153.85.029 230.775.047m-237.707 22.697c-.386.16-.773.322-1.812.615-7.59 4.391-11.27 10.88-10.482 19.71.71 7.956 4.965 13.377 12.808 17.053 3.39.618 6.78 1.765 10.172 1.775 41.104.122 82.21.09 123.314.066 10.313-.006 20.627-.125 31.836-.035 19.459-.28 38.918-.56 59.359-.79.206-12.892.43-25.784.531-38.676.003-.424-1.26-.857-2.857-1.452-47.738-.009-95.477-.037-143.216-.018-23.282.008-46.565.103-70.514.028-.447.051-.894.102-2.08.01-1.189.27-2.378.539-4.222.8-.784.295-1.567.591-2.218.898 0 0-.006-.132-.619.016m145.36 118.297-54.973 56.75c-9.726-9.346-19.024-18.412-28.473-27.317-6.383-6.014-14.79-6.097-20.574-.48-5.747 5.582-5.915 14.928.168 21.049a2261 2261 0 0 0 38.837 38.167c6.242 5.984 14.993 5.82 20.988-.352a17795 17795 0 0 0 80.833-83.76c6.197-6.464 5.804-14.961-.358-20.868-6.09-5.838-14.346-5.475-20.87 1.008-5.079 5.048-10.071 10.184-15.579 15.803"/><path fill="#FAFCFE" d="M421.176 722.625c-4.917-18.557-4.612-36.15 7.779-51.436 10.206-12.59 24.261-15.9 39.617-12.896 14.417 2.82 23.823 11.786 27.99 26.003.273.935.303 1.94.54 3.56l-14.065 1.293c-5.944-14.752-14.463-20.206-27.997-18.18-7.649 1.144-13.365 5.513-16.615 12.212-6.526 13.451-6.523 27.351-.21 40.873 4.031 8.637 11.703 12.627 21.02 12.698 9.65.074 17.185-4.443 21.09-13.274 1.969-4.45 4.284-6.001 8.846-5.393 2.597.346 5.277.062 7.94.062-1.105 14.32-14.05 27.992-28.88 30.805-21.497 4.078-38.552-5.345-47.055-26.327"/><path fill="#FBFDFE" d="M748.16 728.98c-5.387 14.78-17.634 21.812-34.224 19.97-13.28-1.476-23.198-12.16-25.078-26.392-1.541-11.66-.439-22.673 7.266-32.013 7.96-9.649 21.361-12.836 34.094-8.487 12.49 4.266 18.482 13.875 19.539 26.33.563 6.646-.92 13.466-1.598 20.592m-12.493-18.86c-.242-1.302-.434-2.616-.736-3.904-1.985-8.473-8.174-14.068-15.675-14.204-7.288-.132-13.66 4.851-15.23 13.66-1.074 6.03-1.103 12.588.055 18.591 1.74 9.023 7.658 13.247 15.617 13.01 7.38-.22 13.653-5.712 15.217-13.943.765-4.026.633-8.222.752-13.21m-387.56-28.076c4.632-.032 9.264-.064 14.371.414.479 13.087.41 25.666.542 38.242.029 2.76.772 5.511 1.186 8.266 2.321 2.418 4.643 4.836 7.641 7.56 4.643-.446 8.61-1.2 12.576-1.953 0 0-.006.066.279-.088.682-.564 1.08-.974 1.478-1.385 0 0-.13-.03.136-.067.474-.362.683-.685.893-1.008 0 0-.129.025.174-.06.849-1.002 1.394-1.916 1.939-2.83 0 0-.13 0 .159-.195.767-2.095 1.623-3.988 1.664-5.898.288-13.689.412-27.382.587-41.073 4.442-.037 8.884-.073 13.798.433.422 22.219.371 43.895.32 65.571h-13.636v-10.477c-4.44 7.06-9.624 10.943-16.843 11.488-7.613.574-14.882-.087-21.01-6.081a3 3 0 0 0-.468-.304s-.02-.276-.322-.522c-.682-.596-1.061-.946-1.44-1.296 0 0-.05.164-.054-.12-.29-.566-.576-.85-.862-1.132 0 0 .043.319.07-.05-.68-1.825-1.385-3.28-2.09-4.737 0 0-.048.178-.04-.231-.333-5.51-.907-10.61-.971-15.714-.153-12.25-.067-24.502-.077-36.753m218.74 65.928h-13.638v-9.191c-6.866 9.806-16.524 11.709-27.165 9.855-7.016-1.222-12.315-5.398-15.477-12.89-.754-3.43-1.494-6.198-1.513-8.97-.102-14.924-.026-29.849-.01-44.773 0 0-.045.03.434-.042 4.846-.093 9.213-.114 13.58-.134 0 0 .054.142.198.582.143 12.04-.167 23.65.29 35.229.195 4.938 1.993 9.812 3.063 14.715 0 0 .13-.257.158.142.614.936 1.2 1.473 1.785 2.01 0 0 .053-.081.177.133.47.35.817.487 1.164.624 6.973 3.425 13.045 2.258 19.195-4.12a45 45 0 0 0 1.53-2.72s-.057-.178.113-.448c.57-2.37 1.293-4.465 1.314-6.567.128-13.11.1-26.223.122-39.334 4.623-.056 9.245-.112 14.345.357.43 22.196.383 43.87.335 65.542"/><path fill="#FAFCFE" d="M654.762 709.229c3.796.885 7.241 1.475 10.56 2.485 13.914 4.234 17.55 20.274 6.918 30.238-10.284 9.637-32.163 10.005-42.343.252-3.158-3.026-5.078-7.344-7.565-11.07l1.154-1.442c4.074 0 8.154-.115 12.216.097.825.043 1.775 1.193 2.346 2.048 4.821 7.218 17.72 8.66 23.858 2.612 3.555-3.503 2.918-8.766-1.853-10.457-6.205-2.199-12.741-3.45-19.107-5.209-13.25-3.66-18.577-12.218-14.824-23.954 1.76-5.504 5.42-9.608 10.718-11.84 11.559-4.874 22.746-3.701 33.229 3.07 4.64 2.996 6.652 7.278 6.964 13.3h-12.785c-4.887-7.528-12.168-10.203-19.262-6.91-3.389 1.574-5.956 4.067-5.732 7.986.214 3.732 2.827 5.829 6.4 6.673 2.897.684 5.8 1.347 9.108 2.12"/><path fill="#FDFEFF" d="M345.964 659.11c-.01 3.97-.018 7.94-.541 12.356-9.164.492-17.814.54-26.464.588-.297 1.671-.847 3.342-.851 5.014-.057 23.427-.039 46.854-.039 70.907-4.836 0-9.43 0-14.54-.467-.516-25.46-.516-50.451-.516-75.708h-27.941c.065-4.165.13-8.33 1.032-12.659 23.846-.119 46.853-.075 69.86-.03m249.902 48.587c-.22 7.783-.499 15.565-.643 23.349-.1 5.457-.02 10.918-.02 16.924-4.587 0-8.866 0-13.669-.465-.523-22.136-.523-43.808-.523-65.48h12.97v8.538c5.852-8.75 14.017-10.939 23.894-10.274v13.135c-9.685-1.525-17.942.368-21.842 11.586-.096 1.35-.131 2.019-.167 2.687"/><path fill="#004ED8" d="M648.057 449V273.684l.695.001v289.63l-.695.001z"/><path fill="#0143D7" d="M368.942 296.89c.102 78.11.086 156.02.078 233.93 0 .998.1 1.995.14 3.44-.091.596-.137.828-.255.873-.24.092-.518.084-.78.117-.044-1.164-.126-2.327-.126-3.491q-.006-115.983.003-231.966c0-.999.04-1.998.095-2.995.006-.124.197-.31.327-.334.116-.022.266.141.518.425"/><path fill="#004ED8" d="M638.878 262.79c-76.891.26-153.816.242-230.741.232-1.331 0-2.662.109-4.447.157.608-.405 1.67-1.145 2.734-1.146 76.693-.054 153.386-.051 230.08-.028.78 0 1.56.33 2.374.784"/><path fill="#0155D8" d="M633 574.277a52 52 0 0 1 3.59-.158c-1.682.67-3.759 1.798-5.837 1.802-49.322.099-98.643.076-147.964.078-7.767 0-7.697.005-7.791 7.998a514 514 0 0 1-.815 23.84c-.245-10.63-.213-21.28.364-32.38 51.397-.442 102.25-.426 153.102-.457 1.784-.001 3.567-.472 5.351-.723"/><path fill="#004ED8" d="M318.976 672.519c8.633-.513 17.283-.56 26.39-.599-.651.37-1.753 1.023-2.866 1.043-5.819.106-11.65.24-17.46-.011-4.003-.173-5.138 1.438-5.114 5.26.131 20.955.062 41.912.06 62.868v4.94l-.992.005c0-24.347 0-48.694-.018-73.506"/><path fill="#0143D7" d="M275.382 672.072c8.799-.272 17.908-.272 27.631-.272 0 25.257 0 50.249.056 75.704-.32-1.606-1.014-3.675-1.022-5.746-.08-20.984-.179-41.97.049-62.952.05-4.711-1.557-6.01-6.045-5.907-6.778.155-13.572-.337-20.67-.827"/><path fill="#004ED8" d="M402.21 572.679c5.507.484 11.167 1.27 17.766 2.185 0 10.815 0 21.999.072 33.65-.633-1.424-1.883-3.297-1.948-5.21a318 318 0 0 1-.034-21.422c.134-4.026-.708-6.02-5.374-6.119-3.461-.074-6.887-1.795-10.482-3.084"/><path fill="#0869DD" d="M526.637 731.94c-1.099-4.49-2.897-9.364-3.092-14.302-.457-11.58-.147-23.19-.22-35.257.51 1.302 1.56 3.064 1.596 4.847.175 8.659-.127 17.33.149 25.983.195 6.115 1.041 12.21 1.567 18.728"/><path fill="#004ED8" d="M391.413 682.174c.143 13.486.02 27.18-.27 40.868-.04 1.91-.896 3.803-1.657 5.962-.015-14.153.23-28.567.567-42.978.029-1.223.68-2.431 1.36-3.852m-45.775-23.317c-22.681.21-45.688.165-69.16.054.805-.353 2.073-.887 3.342-.89 20.87-.046 41.742-.034 62.613.004.96.002 1.919.377 3.205.832m235.102 23.235c.271 21.606.271 43.278.337 65.413-.318-.934-1.03-2.33-1.035-3.73-.066-20.08-.04-40.163-.011-60.245 0-.457.285-.914.709-1.438"/><path fill="#0143D7" d="M406.11 747.65c-.21-21.353-.159-43.03-.12-65.173.327.779.961 2.024.965 3.272.057 19.567.042 39.134.002 58.7-.002.96-.382 1.919-.847 3.2m160.99-.004c-.206-21.346-.159-43.019-.13-65.158.328.778.972 2.021.975 3.267.06 19.563.045 39.126.006 58.689-.002.958-.389 1.916-.85 3.202"/><path fill="#004ED8" d="M508.796 682.338c.231 14.59.155 29.514.257 44.437.02 2.773.76 5.542 1.311 8.712-.68-1.117-2.209-2.628-2.221-4.151-.126-15.913-.011-31.828.056-47.742.001-.308.229-.615.597-1.256"/><path fill="#0143D7" d="M347.845 682.363c.271 11.932.185 24.184.338 36.434.064 5.104.638 10.203 1.061 15.734-.681-1.509-2.083-3.438-2.106-5.385-.18-14.857-.096-29.717-.061-44.577.001-.63.33-1.258.768-2.206m16.553 46.277c-.607-2.429-1.35-5.18-1.38-7.94-.131-12.576-.062-25.155-.082-38.197.332.437.97 1.335.987 2.244.27 14.522.46 29.045.475 43.894m187.495-46.261c.25 12.804.28 25.916.15 39.027-.02 2.102-.743 4.198-1.402 6.595.153-14.906.566-30.11 1.252-45.622m44.045 25.804c-.036-1.154 0-1.823.127-2.816.368 1.949.864 4.221.88 6.497.081 11.445.037 22.892-.936 34.341 0-12.512 0-25.024-.071-38.022"/><path fill="#004ED8" d="M384.015 734.486c-3.56.84-7.526 1.594-11.81 2.101 3.59-.893 7.497-1.54 11.81-2.101m38.25-123.443c2.788-1.201 5.866-2.152 9.308-3.182-1.802 3.662-4.863 5.008-9.308 3.182"/><path fill="#0869DD" d="M523.011 681.596c-4.32.251-8.688.272-13.51.376-.448-.104-.441-.292.032-.76 4.758-.29 9.048-.299 13.338-.308z"/><path fill="#004ED8" d="M522.543 680.687c-3.962.226-8.252.235-12.996.242 3.92-.155 8.294-.308 12.996-.242m-90.347-72.793c1.322-1.059 3.026-2.109 5.024-3.327-1.351 1-2.997 2.167-5.024 3.327"/><path fill="#0143D7" d="M349.168 735.125c.731 1.073 1.436 2.53 2.274 4.325a32.5 32.5 0 0 1-2.274-4.325"/><path fill="#004ED8" d="M389.003 729.26c-.227.789-.772 1.703-1.606 2.768.238-.78.763-1.712 1.606-2.768"/><path fill="#0143D7" d="M550.343 728.464c-.115.697-.504 1.435-1.154 2.349.12-.652.5-1.48 1.154-2.349"/><path fill="#0869DD" d="M528.514 734.178c-.548-.21-1.134-.747-1.832-1.566.523.225 1.16.732 1.832 1.566"/><path fill="#004ED8" d="M420.135 609.187c.528.187 1.148.685 1.906 1.447-.512-.202-1.163-.67-1.906-1.447m17.647-4.724c.02-.325.284-.462.826-.524-.06.19-.345.403-.826.524M385.87 733.166c-.089.345-.487.755-1.136 1.323.108-.314.468-.786 1.137-1.323"/><path fill="#0143D7" d="M352.185 741.074c.324.057.703.407 1.253.96-.285-.088-.741-.377-1.253-.96"/><path fill="#004ED8" d="M386.987 732.196c.011.152-.198.475-.685.902-.03-.175.217-.453.685-.902"/><path fill="#0869DD" d="M529.71 735.05c-.165.075-.512-.061-1.028-.427.17-.08.509.067 1.029.427"/><path fill="#0143D7" d="M351.343 739.8c.157.012.443.295.815.884-.171 0-.429-.306-.815-.884m2.484 2.884c.065-.085.228-.012.217.077-.01.089-.282.183-.282.183s.001-.175.065-.26"/><path fill="#076ADD" d="M401.017 322.777c-7.14-3.309-11.397-8.73-12.106-16.686-.787-8.83 2.891-15.319 11.01-19.654.986-.236 1.441-.528 1.897-.819 0 0 .006.132.43.195a5946 5946 0 0 0 41.913.178c58.493.012 116.985.065 175.478-.102 5.118-.015 6.689 1.51 6.443 6.54-.382 7.813-.094 15.66-.1 23.492-.006 7.053-.012 7.064-7.19 7.065-69.324.01-138.648.019-207.973.013-3.267 0-6.535-.145-9.802-.222"/><path fill="#0869DD" d="M546.802 403.802c5.27-5.358 10.262-10.494 15.342-15.542 6.523-6.483 14.78-6.846 20.87-1.008 6.16 5.907 6.554 14.404.357 20.868a17795 17795 0 0 1-80.833 83.76c-5.995 6.172-14.746 6.336-20.988.352a2261 2261 0 0 1-38.837-38.167c-6.083-6.12-5.915-15.467-.168-21.049 5.783-5.617 14.191-5.534 20.574.48 9.45 8.905 18.747 17.97 28.473 27.317 18.287-18.879 36.63-37.814 55.21-57.011"/><path fill="#0155D8" d="M401.368 322.96c2.916-.106 6.184.038 9.451.039 69.325.006 138.65-.004 207.974-.013 7.177-.001 7.183-.012 7.189-7.065.006-7.833-.282-15.679.1-23.492.246-5.03-1.325-6.555-6.443-6.54-58.493.167-116.985.114-175.478.102-13.83-.003-27.66-.075-41.98-.183.294-.365 1.077-.66 2.56-.907 1.888-.202 3.075-.454 4.263-.706.446-.05.893-.102 2.034.109 2.175.406 3.657.677 5.14.677 67.822.021 135.645.025 203.468-.015 1.784 0 3.568-.5 5.353-.767.673.428 1.935.861 1.932 1.285-.1 12.892-.325 25.784-1.405 38.592-18.762-.057-36.65-.049-54.538.027-1.615.007-3.228.45-4.842.69-10.314.067-20.628.186-30.941.192-41.105.024-82.21.056-123.314-.066-3.393-.01-6.782-1.157-10.523-1.958"/><path fill="#056CE1" d="M624.537 284.115c-1.323.35-3.107.85-4.891.851-67.823.04-135.646.036-203.468.015-1.483 0-2.965-.27-4.807-.612 22.922-.252 46.205-.347 69.487-.355 47.739-.019 95.478.01 143.679.101"/><path fill="#076ADE" d="M632.538 574.188c-1.322.34-3.105.81-4.889.812-50.853.031-101.705.015-153.015-.006.876-.313 2.209-.873 3.542-.874 51.3-.039 102.6-.026 154.362.068"/><path fill="#0586FF" d="M566.593 324.871c1.167-.318 2.78-.76 4.395-.768 17.888-.076 35.776-.084 54.048-.052a7643 7643 0 0 1-58.443.82"/><path fill="#056CE1" d="M408.634 284.123c-.818.324-2.005.576-3.564.782.816-.314 2.005-.584 3.564-.782"/><path fill="#0155D8" d="M401.512 285.692c-.15.217-.605.509-1.264.678.184-.282.57-.443 1.264-.678"/><path fill="#0869DD" d="M735.744 710.555c-.197 4.553-.065 8.75-.83 12.775-1.564 8.23-7.838 13.722-15.217 13.943-7.959.237-13.878-3.987-15.617-13.01-1.158-6.003-1.129-12.562-.055-18.591 1.57-8.809 7.942-13.792 15.23-13.66 7.5.136 13.69 5.731 15.675 14.204.302 1.288.494 2.602.814 4.339"/></svg>